# xmcd
#
# Track frame offsets:
# 182
# 34300
# 79580
# 109307
# 123045
# 154540
# 170472
# 179632
# 191720
# 211405
# 239332
# 320120
#
# Disc length: 4505 seconds
#
#
# Revision: 2
# Processed by: cddbd v1.5.2PL0 Copyright (c) Steve Scherf et al.
# Submitted via: FreeRIP 2.70 
#
DISCID=a511970c
DTITLE=Tom Waits - On Broadway
DYEAR=1900
DGENRE=
TTITLE0=Tom Traubert's Blues
TTITLE1=Small Change/Big Spender
TTITLE2=Romeo Is Bleeding
TTITLE3=Annie's Back In Town
TTITLE4=With A Suitcase/Jitterbug Boy/Better Off Without A Wife
TTITLE5=I Wish I Was In New Orleans
TTITLE6=When The Saints Go Marching In
TTITLE7=Since I Fell For You/New Orleans Reprise
TTITLE8=Red Shoes
TTITLE9=Christmas Card From A Hooker In Minneapolis
TTITLE10=Hokey Pokey/Pasties And A G-String/Summertime/Burma Shave
TTITLE11=Introducing The Band
EXTD=Lunatic 2008
EXTT0=
EXTT1=
EXTT2=
EXTT3=
EXTT4=
EXTT5=
EXTT6=
EXTT7=
EXTT8=
EXTT9=
EXTT10=
EXTT11=
PLAYORDER=
